<svg width="171" height="153" viewBox="0 0 171 153" fill="none" xmlns="http://www.w3.org/2000/svg">
<g filter="url(#filter0_i_102_6)">
<path d="M153.812 4.44531C135.909 4.96615 124.971 5.22656 121 5.22656C116.312 5.22656 106.645 4.96615 91.9961 4.44531C91.6055 5.8776 91.6055 7.40755 91.9961 9.03516C98.7669 9.42578 103.454 10.0117 106.059 10.793C108.663 11.5742 109.965 13.1693 109.965 15.5781C109.965 16.75 109.574 17.694 108.793 18.4102L53.4219 71.8281H46.5859C46.5859 54.0547 46.9766 36.2487 47.7578 18.4102C47.888 13.4622 58.7604 10.3372 80.375 9.03516C80.7656 7.79818 80.7656 6.26823 80.375 4.44531C63.3177 4.96615 50.0039 5.22656 40.4336 5.22656C32.4258 5.22656 21.0651 4.96615 6.35156 4.44531C5.83073 5.61719 5.83073 7.14714 6.35156 9.03516C21.3255 10.4674 28.8776 13.5924 29.0078 18.4102C29.6589 33.7096 29.9844 51.9062 29.9844 73C29.9844 93.638 29.5938 114.178 28.8125 134.621C28.6823 139.439 21.1302 142.564 6.15625 143.996C5.63542 145.038 5.63542 146.568 6.15625 148.586C17.224 148.195 28.5846 148 40.2383 148C54.1055 148 67.4193 148.195 80.1797 148.586C80.7005 147.544 80.7005 146.014 80.1797 143.996C58.5651 142.694 47.6927 139.569 47.5625 134.621C46.9115 114.309 46.5859 96.1771 46.5859 80.2266L54.3984 80.0312L101.957 129.445C105.473 133.156 107.23 135.793 107.23 137.355C107.23 139.634 106.189 141.294 104.105 142.336C102.022 143.312 97.8555 143.866 91.6055 143.996C91.0846 146.014 91.0846 147.544 91.6055 148.586V148.781C105.993 148.26 118.331 148 128.617 148C143.656 148 155.766 148.195 164.945 148.586C165.401 147.154 165.401 145.624 164.945 143.996C149.776 143.475 137.602 138.625 128.422 129.445L68.168 68.4102L120.805 18.4102C124.255 16.0013 128.096 14.1133 132.328 12.7461C136.625 11.3138 140.141 10.4349 142.875 10.1094C145.609 9.78385 149.255 9.42578 153.812 9.03516C154.203 7.40755 154.203 5.8776 153.812 4.44531ZM158.988 12.8438C143.363 13.8854 132.165 16.75 125.395 21.4375L80.5703 64.2109L141.996 126.418C151.176 135.598 160.323 140.383 169.438 140.773C170.479 145.07 170.479 149.074 169.438 152.785C151.794 151.743 124.906 151.743 88.7734 152.785C87.4714 149.074 87.276 145.07 88.1875 140.773C98.2135 140.513 103.227 139.374 103.227 137.355C103.227 136.704 89.3594 121.991 61.625 93.2148C61.625 105.324 61.9505 119.061 62.6016 134.426C62.6016 134.816 62.7643 135.207 63.0898 135.598C63.4154 135.988 63.8711 136.314 64.457 136.574C65.1081 136.835 65.7591 137.128 66.4102 137.453C67.0612 137.714 67.9401 137.974 69.0469 138.234C70.2188 138.495 71.1953 138.723 71.9766 138.918C72.7578 139.113 73.7995 139.309 75.1016 139.504C76.4688 139.699 77.543 139.862 78.3242 139.992C79.1706 140.122 80.2773 140.253 81.6445 140.383C83.0768 140.513 84.0534 140.643 84.5742 140.773C85.5508 145.07 85.3555 149.074 83.9883 152.785C59.9648 152.264 45.3815 152.004 40.2383 152.004C36.7227 152.004 24.4505 152.264 3.42188 152.785C1.79427 148.293 1.79427 144.094 3.42188 140.188C17.5495 138.755 24.6784 136.835 24.8086 134.426C25.5898 118.15 25.9805 97.6745 25.9805 73C25.9805 52.0365 25.6549 33.9049 25.0039 18.6055C24.8737 16.1966 17.6146 14.276 3.22656 12.8438C2.11979 8.54688 2.25 4.34766 3.61719 0.246094C9.34635 0.246094 17.0938 0.408854 26.8594 0.734375C36.6901 1.0599 43.526 1.22266 47.3672 1.22266C50.1667 1.22266 55.375 1.15755 62.9922 1.02734C70.6094 0.897135 77.3477 0.832031 83.207 0.832031C84.3789 4.54297 84.444 8.54688 83.4023 12.8438C69.7956 14.1458 62.9271 16.0664 62.7969 18.6055C62.1458 32.082 61.7552 45.3307 61.625 58.3516L105.961 15.5781C105.961 14.5365 100.427 13.625 89.3594 12.8438C88.0573 8.41667 88.1224 4.28255 89.5547 0.441406C113.188 1.48307 136.332 1.61328 158.988 0.832031C160.03 4.54297 160.03 8.54688 158.988 12.8438Z" fill="white"/>
</g>
<defs>
<filter id="filter0_i_102_6" x="0.980469" y="0.246094" width="170.02" height="156.539" filterUnits="userSpaceOnUse" color-interpolation-filters="sRGB">
<feFlood flood-opacity="0" result="BackgroundImageFix"/>
<feBlend mode="normal" in="SourceGraphic" in2="BackgroundImageFix" result="shape"/>
<feColorMatrix in="SourceAlpha" type="matrix" values="0 0 0 0 0 0 0 0 0 0 0 0 0 0 0 0 0 0 127 0" result="hardAlpha"/>
<feOffset dy="4"/>
<feGaussianBlur stdDeviation="2"/>
<feComposite in2="hardAlpha" operator="arithmetic" k2="-1" k3="1"/>
<feColorMatrix type="matrix" values="0 0 0 0 0 0 0 0 0 0 0 0 0 0 0 0 0 0 0.25 0"/>
<feBlend mode="normal" in2="shape" result="effect1_innerShadow_102_6"/>
</filter>
</defs>
</svg>
